<?xml version="1.0" standalone="no"?>
<!DOCTYPE svg PUBLIC "-//W3C//DTD SVG 20010904//EN"
 "http://www.w3.org/TR/2001/REC-SVG-20010904/DTD/svg10.dtd">
<svg version="1.0" xmlns="http://www.w3.org/2000/svg"
 width="16.000000pt" height="16.000000pt" viewBox="0 0 16.000000 16.000000"
 preserveAspectRatio="xMidYMid meet">
<metadata>
Created by potrace 1.11, written by Peter Selinger 2001-2013
</metadata>
<g transform="translate(0.000000,16.000000) scale(0.003125,-0.003125)"
fill="#000000" stroke="none">
<path d="M2290 3934 c-137 -30 -211 -51 -224 -64 -5 -5 -16 -10 -24 -10 -19 0
-113 -46 -200 -97 -242 -143 -453 -381 -561 -633 -13 -30 -26 -62 -30 -70 -4
-8 -17 -46 -29 -85 -107 -345 -77 -718 84 -1037 239 -478 723 -778 1255 -778
369 0 725 148 988 411 66 66 135 151 186 229 47 72 125 221 125 239 0 6 7 25
14 43 76 172 108 497 70 698 -43 225 -107 387 -219 555 -106 158 -232 284
-390 390 -168 112 -330 176 -555 219 -129 25 -356 20 -490 -10z m500 -282
c144 -33 228 -66 360 -143 37 -21 160 -119 200 -159 40 -40 138 -163 159 -200
83 -143 113 -220 146 -380 32 -152 32 -268 0 -420 -30 -144 -47 -192 -107
-309 -100 -196 -273 -369 -469 -469 -117 -60 -165 -77 -309 -107 -152 -32
-268 -32 -420 0 -146 30 -193 47 -310 108 -92 48 -198 125 -270 197 -40 40
-138 163 -159 200 -118 204 -166 373 -166 590 0 215 42 364 165 588 62 114
248 300 362 362 172 94 255 124 468 164 55 10 268 -3 350 -22z"/>
<path d="M1967 3090 c-106 -67 -138 -185 -77 -282 90 -143 270 -143 360 0 61
96 28 216 -78 282 -67 42 -139 42 -205 0z"/>
<path d="M2948 3090 c-28 -17 -61 -50 -78 -78 -61 -96 -28 -216 78 -282 96
-61 216 -28 282 78 61 96 28 216 -78 282 -37 24 -58 30 -102 30 -44 0 -65 -6
-102 -30z"/>
<path d="M2144 2267 c-3 -8 -4 -54 -2 -103 l3 -89 415 0 415 0 0 100 0 100
-413 3 c-337 2 -413 0 -418 -11z"/>
</g>
</svg>
